<svg width="24" height="24" viewBox="0 0 24 24" fill="none" xmlns="http://www.w3.org/2000/svg">
<g clip-path="url(#clip0_1526_912)">
<path d="M10.9654 -0.0182165C11.0387 -0.0185952 11.0387 -0.0185952 11.1135 -0.0189815C11.2759 -0.0196475 11.4383 -0.0193187 11.6007 -0.018984C11.7177 -0.0192515 11.8347 -0.019578 11.9517 -0.0199589C12.2356 -0.0207112 12.5196 -0.0208045 12.8035 -0.0205583C13.0344 -0.0203683 13.2654 -0.0204371 13.4963 -0.0206871C13.5292 -0.0207222 13.5622 -0.0207572 13.5961 -0.0207934C13.6631 -0.0208652 13.7301 -0.0209373 13.797 -0.0210097C14.4239 -0.0216521 15.0507 -0.0213989 15.6776 -0.0208604C16.2503 -0.0203947 16.8229 -0.0210017 17.3956 -0.0221229C17.9847 -0.0232676 18.5738 -0.0237163 19.1629 -0.0234048C19.4932 -0.0232415 19.8235 -0.0233438 20.1538 -0.0241666C20.4643 -0.0249308 20.7749 -0.0247056 21.0855 -0.0238242C21.1993 -0.0236516 21.313 -0.0237966 21.4268 -0.0242876C21.5825 -0.0249082 21.7382 -0.0243643 21.8939 -0.023538C21.9385 -0.0239882 21.9832 -0.0244385 22.0292 -0.0249023C22.5712 -0.0190142 23.0562 0.192954 23.4466 0.5674C23.7976 0.943682 24.0114 1.35232 24.012 1.87502C24.0122 1.90708 24.0123 1.93915 24.0125 1.97218C24.0129 2.07958 24.0127 2.18695 24.0125 2.29434C24.0127 2.37214 24.0129 2.44993 24.0131 2.52773C24.0137 2.74148 24.0137 2.95523 24.0136 3.16899C24.0136 3.39953 24.0141 3.63008 24.0145 3.86063C24.0153 4.31233 24.0156 4.76403 24.0156 5.21573C24.0157 5.58292 24.0158 5.95012 24.0161 6.31731C24.017 7.3584 24.0174 8.39949 24.0173 9.44057C24.0173 9.4967 24.0173 9.55284 24.0173 9.61067C24.0173 9.66687 24.0173 9.72307 24.0173 9.78097C24.0173 10.6916 24.0182 11.6023 24.0195 12.5129C24.0208 13.448 24.0215 14.3831 24.0214 15.3182C24.0214 15.8431 24.0216 16.3681 24.0226 16.8931C24.0235 17.3401 24.0237 17.7871 24.0231 18.2341C24.0228 18.4621 24.0227 18.6901 24.0236 18.9181C24.0243 19.127 24.0242 19.3359 24.0233 19.5448C24.0232 19.6202 24.0234 19.6956 24.0239 19.771C24.0281 20.4151 23.9144 20.9257 23.4843 21.4218C23.0818 21.7998 22.6085 21.973 22.0928 22.143C22.0334 22.1628 21.9741 22.1826 21.9148 22.2025C21.7548 22.2559 21.5947 22.3089 21.4346 22.3619C21.2666 22.4176 21.0988 22.4735 20.9309 22.5295C20.6493 22.6232 20.3677 22.7168 20.086 22.8102C19.7245 22.9301 19.3631 23.0502 19.0018 23.1705C18.6907 23.2741 18.3795 23.3776 18.0684 23.481C18.0017 23.5031 17.935 23.5253 17.8683 23.5475C17.6492 23.6203 17.4301 23.6931 17.211 23.7657C17.1557 23.7841 17.1004 23.8025 17.0435 23.8214C16.9929 23.8382 16.9423 23.8549 16.8902 23.8722C16.8462 23.8868 16.8023 23.9013 16.757 23.9164C16.265 24.0715 15.6355 24.0851 15.1602 23.8743C14.6298 23.5848 14.2225 23.1866 14.0344 22.6C13.9521 22.2698 13.9582 21.945 13.9628 21.6064C13.9633 21.5479 13.9637 21.4895 13.9641 21.4292C13.9652 21.2861 13.9668 21.1431 13.9687 21C13.926 21.0004 13.8833 21.0008 13.8393 21.0012C13.4346 21.005 13.0299 21.0078 12.6251 21.0097C12.4171 21.0106 12.2091 21.012 12.0011 21.0141C11.7999 21.0162 11.5987 21.0173 11.3975 21.0177C11.3212 21.0181 11.2449 21.0188 11.1686 21.0198C10.3159 21.0307 9.55192 20.8204 8.91716 20.2209C8.14882 19.4616 7.9539 18.6057 7.94733 17.5597C7.94723 17.4465 7.94739 17.3334 7.94779 17.2203C7.94819 17.0474 7.94683 16.8745 7.94535 16.7016C7.94528 16.5907 7.9453 16.4797 7.94544 16.3687C7.94492 16.3175 7.94439 16.2664 7.94385 16.2137C7.94701 15.8648 7.99131 15.5492 8.2396 15.2868C8.53549 15.019 8.76588 14.976 9.16456 14.9822C9.46238 15.0145 9.64051 15.1565 9.83784 15.372C10.0537 15.6831 10.0444 15.9786 10.044 16.3443C10.045 16.4528 10.0459 16.5612 10.0469 16.6697C10.048 16.8398 10.0488 17.0099 10.0491 17.1801C10.0495 17.3449 10.0511 17.5096 10.0528 17.6744C10.0526 17.7249 10.0523 17.7754 10.0521 17.8274C10.0564 18.1595 10.1013 18.428 10.3301 18.6805C10.5746 18.9018 10.8277 18.9488 11.1483 18.9524C11.179 18.9529 11.2096 18.9533 11.2413 18.9538C11.3417 18.9553 11.4421 18.9561 11.5426 18.9569C11.6126 18.9577 11.6826 18.9587 11.7526 18.9596C11.9361 18.962 12.1197 18.9639 12.3033 18.9656C12.4909 18.9675 12.6784 18.9699 12.866 18.9722C13.2336 18.9768 13.6011 18.9807 13.9687 18.9843C13.9686 18.9523 13.9686 18.9203 13.9685 18.8873C13.9654 16.9884 13.963 15.0896 13.9615 13.1907C13.9613 12.9626 13.9612 12.7345 13.961 12.5064C13.9609 12.461 13.9609 12.4156 13.9609 12.3688C13.9602 11.634 13.9591 10.8991 13.9578 10.1643C13.9565 9.41 13.9558 8.65572 13.9555 7.90143C13.9553 7.43618 13.9547 6.97094 13.9535 6.50569C13.9528 6.18644 13.9526 5.86719 13.9527 5.54793C13.9528 5.36388 13.9527 5.17983 13.9519 4.99578C13.9512 4.82695 13.9512 4.65813 13.9517 4.48931C13.9518 4.39997 13.9512 4.31063 13.9505 4.2213C13.9541 3.53703 14.1268 3.00609 14.5869 2.49312C14.7301 2.35972 14.8824 2.2791 15.058 2.19374C15.1339 2.15661 15.1339 2.15661 15.2113 2.11873C15.2498 2.10016 15.2884 2.08159 15.3281 2.06246C14.7486 2.0581 14.1692 2.05478 13.5897 2.05274C13.3207 2.05176 13.0516 2.05044 12.7825 2.04831C12.5226 2.04627 12.2628 2.04515 12.0029 2.04467C11.904 2.04432 11.805 2.04365 11.7061 2.04263C11.567 2.04126 11.4281 2.04108 11.2891 2.04117C11.2485 2.0405 11.2079 2.03982 11.1661 2.03913C10.8589 2.04119 10.5674 2.10718 10.3315 2.31615C10.1215 2.55464 10.0668 2.76809 10.0653 3.07961C10.0643 3.14018 10.0633 3.20076 10.0623 3.26317C10.0613 3.35829 10.0605 3.4534 10.0602 3.54853C10.056 4.40606 10.056 4.40606 9.76169 4.73116C9.48798 4.98536 9.22685 5.03745 8.85969 5.03023C8.57959 5.00113 8.41045 4.89335 8.21186 4.69917C7.94249 4.29897 7.94398 3.91179 7.94819 3.44527C7.94835 3.41168 7.94851 3.37809 7.94867 3.34349C7.95531 2.37388 8.16896 1.53025 8.87397 0.822832C9.45683 0.268777 10.1609 -0.023292 10.9654 -0.0182165Z" fill="#FBFFBD"/>
<path d="M6.56238 5.10952C7.06148 5.52342 7.51204 6.00222 7.97138 6.45882C8.03067 6.51774 8.03067 6.51774 8.09116 6.57785C8.29978 6.78522 8.50823 6.99276 8.71656 7.20041C8.88813 7.37135 9.06003 7.54194 9.23223 7.71224C9.4416 7.91929 9.65038 8.12691 9.85876 8.33496C9.93778 8.41366 10.017 8.49217 10.0964 8.57047C10.2074 8.68001 10.3177 8.79027 10.4278 8.90073C10.4603 8.93242 10.4927 8.96412 10.5262 8.99677C10.7781 9.25195 10.9728 9.53933 11.045 9.89553C11.0434 9.95408 11.0434 9.95408 11.0419 10.0138C11.0419 10.0531 11.042 10.0924 11.0421 10.1328C10.9614 10.5367 10.7066 10.789 10.4239 11.0684C10.3832 11.1094 10.3425 11.1503 10.3005 11.1925C10.1895 11.3041 10.078 11.4152 9.96637 11.526C9.84922 11.6425 9.73254 11.7595 9.6158 11.8764C9.41982 12.0725 9.22346 12.2683 9.02687 12.4638C8.79994 12.6895 8.5736 12.9157 8.34757 13.1423C8.12955 13.3608 7.91113 13.5789 7.69253 13.7969C7.59975 13.8894 7.5071 13.9821 7.41456 14.0748C7.28527 14.2044 7.15541 14.3333 7.02548 14.4622C6.98733 14.5006 6.94919 14.5389 6.90989 14.5785C6.62928 14.8554 6.41371 15.0199 6.00574 15.0236C5.65842 15.0155 5.47174 14.9336 5.22553 14.6975C5.00109 14.4523 4.95679 14.2018 4.95799 13.8787C4.95797 13.8476 4.95796 13.8165 4.95795 13.7844C4.95801 13.6824 4.95874 13.5805 4.95948 13.4785C4.95965 13.4075 4.95978 13.3364 4.95988 13.2653C4.96023 13.079 4.96115 12.8927 4.96219 12.7064C4.96315 12.5159 4.96358 12.3255 4.96405 12.1351C4.96506 11.762 4.96665 11.3889 4.96863 11.0158C4.91682 11.0163 4.86501 11.0168 4.81162 11.0173C4.322 11.0221 3.83239 11.0256 3.34275 11.0279C3.09105 11.0291 2.83937 11.0308 2.58769 11.0334C2.34454 11.036 2.10141 11.0374 1.85825 11.038C1.76574 11.0384 1.67324 11.0393 1.58074 11.0405C0.61563 11.0533 0.615631 11.0533 0.281131 10.7814C0.00655446 10.4875 -0.0192196 10.2099 -0.0164158 9.82174C0.0126671 9.52666 0.142743 9.36621 0.354373 9.17007C0.392078 9.14493 0.429783 9.11979 0.468631 9.09389C0.493321 9.07707 0.518011 9.06025 0.543449 9.04292C0.716616 8.97718 0.890612 8.98795 1.07329 8.9895C1.11538 8.98949 1.15747 8.98947 1.20083 8.98946C1.33983 8.98952 1.47881 8.99025 1.6178 8.99099C1.71422 8.99116 1.81064 8.9913 1.90706 8.99139C2.16075 8.99175 2.41443 8.99267 2.66812 8.99371C2.92702 8.99467 3.18592 8.99509 3.44483 8.99557C3.95276 8.99657 4.4607 8.99817 4.96863 9.00014C4.96816 8.94149 4.96816 8.94149 4.96768 8.88166C4.96486 8.51203 4.96272 8.14241 4.96134 7.77278C4.96061 7.58277 4.95962 7.39278 4.95802 7.20278C4.95649 7.0192 4.95565 6.83564 4.95529 6.65205C4.95503 6.58223 4.95453 6.51242 4.95376 6.4426C4.94527 5.63265 4.94527 5.63265 5.21765 5.30874C5.62169 4.97048 6.07562 4.81773 6.56238 5.10952Z" fill="#FBFFBD"/>
</g>
<defs>
<clipPath id="clip0_1526_912">
<rect width="24" height="24" fill="white"/>
</clipPath>
</defs>
</svg>
