<svg width="25" height="24" viewBox="0 0 25 24" fill="none" xmlns="http://www.w3.org/2000/svg">
<path d="M22.9164 8.79535C23.5991 9.39536 24.1223 10.2277 24.1917 11.1544C24.2308 12.366 23.955 13.3138 23.1215 14.2182C22.4234 14.8835 21.4725 15.2197 20.5154 15.2035C19.513 15.1513 18.7089 14.7738 17.9945 14.0717C17.9652 14.043 17.9358 14.0142 17.9056 13.9846C17.3711 13.4187 17.0329 12.6001 17.0102 11.8217C17.0078 11.7883 17.0055 11.7549 17.003 11.7205C16.9623 10.7449 17.3356 9.86287 17.9517 9.12677C19.2414 7.7412 21.45 7.63677 22.9164 8.79535ZM20.0102 9.29047C20.0102 9.84734 20.0102 10.4042 20.0102 10.978C19.4533 10.978 18.8964 10.978 18.3227 10.978C18.3227 11.3802 18.3227 11.7823 18.3227 12.1967C18.8795 12.1967 19.4364 12.1967 20.0102 12.1967C20.0102 12.7536 20.0102 13.3105 20.0102 13.8842C20.4124 13.8842 20.8145 13.8842 21.2289 13.8842C21.2289 13.3273 21.2289 12.7705 21.2289 12.1967C21.7858 12.1967 22.3427 12.1967 22.9164 12.1967C22.9164 11.7945 22.9164 11.3923 22.9164 10.978C22.3595 10.978 21.8027 10.978 21.2289 10.978C21.2289 10.4211 21.2289 9.86422 21.2289 9.29047C20.8267 9.29047 20.4245 9.29047 20.0102 9.29047Z" fill="#FBFFBD"/>
<path d="M15.5928 3.02719C14.6806 2.04234 13.4065 1.5 12.0003 1.5C10.5865 1.5 9.30824 2.03906 8.40027 3.01781C7.48246 4.00734 7.03527 5.35219 7.14027 6.80437C7.34839 9.66937 9.52855 12 12.0003 12C14.472 12 16.6484 9.66984 16.8598 6.80531C16.9662 5.36625 16.5162 4.02422 15.5928 3.02719V3.02719ZM20.2503 22.5H3.75027C3.5343 22.5028 3.32042 22.4574 3.12419 22.3672C2.92796 22.2769 2.75432 22.1441 2.61589 21.9783C2.31121 21.6141 2.18839 21.1167 2.27933 20.6137C2.67496 18.4191 3.90964 16.5755 5.85027 15.2812C7.57433 14.1323 9.75824 13.5 12.0003 13.5C14.2423 13.5 16.4262 14.1328 18.1503 15.2812C20.0909 16.575 21.3256 18.4186 21.7212 20.6133C21.8121 21.1162 21.6893 21.6136 21.3846 21.9778C21.2463 22.1437 21.0726 22.2766 20.8764 22.367C20.6802 22.4573 20.4663 22.5028 20.2503 22.5V22.5Z" fill="#FBFFBD"/>
</svg>
